# xmcd
#
# Track frame offsets: 
#        182
#        12382
#        27545
#        39682
#        53970
#        75745
#        89377
#        107520
#        123270
#        140387
#        152887
#        165787
#        180257
#        197362
#
# Disc length: 2880 seconds
#
# Revision: 7
# Processed by: cddbd v1.5.2PL0 Copyright (c) Steve Scherf et al.
# Submitted via: ExactAudioCopy v0.99pb5
#
DISCID=a60b3e0e
DTITLE=Taj Mahal - Phantom Blues
DYEAR=1996
DGENRE=Blues
TTITLE0=Lovin' In My Baby's Eyes
TTITLE1=Cheatin' On You
TTITLE2=The Hustle Is On
TTITLE3=Here In The Dark
TTITLE4=Fanning The Flames
TTITLE5=I Need Your Loving
TTITLE6=Ooh Poo Pah Doo
TTITLE7=Lonely Avenue
TTITLE8=Don't Tell Me
TTITLE9=What Am I Living For?
TTITLE10=We're Gonna Make It
TTITLE11=Let The Four Winds Blow
TTITLE12=(You've Got To) Love Her With A Feeling
TTITLE13=The Car Of Your Dreams
EXTD=YEAR: 1996 ID3G:   0
EXTT0=
EXTT1=
EXTT2=
EXTT3=
EXTT4=
EXTT5=
EXTT6=
EXTT7=
EXTT8=
EXTT9=
EXTT10=
EXTT11=
EXTT12=
EXTT13=
PLAYORDER=
